# xmcd
#
# Track frame offsets: 
#        150
#        12942
#        28100
#        48190
#        69470
#        99032
#        110770
#        119965
#        139987
#        152100
#        176450
#        192950
#        205267
#        219165
#        241900
#        257017
#        269487
#        286275
#        303450
#        327710
#
# Disc length: 4508 seconds
#
# Revision: 9
# Processed by: cddbd v1.5.2PL0 Copyright (c) Steve Scherf et al.
# Submitted via: ExactAudioCopyFreeDBPlugin 1.0
#
DISCID=2c119a14
DTITLE=Various Artist - k-Your Song [CD2]
DYEAR=2001
DGENRE=Other
TTITLE0=ビー・ジーズ - 若葉のころ
TTITLE1=ＡＢＢＡ - S.O.S.
TTITLE2=ナナ・ムスクーリ - オンリー・ラブ
TTITLE3=スイング・アウト・シスター - あなたにいてほしい
TTITLE4=ティアーズ・フォー・フィアーズ - シャウト
TTITLE5=セルジオ・メンデス＆ブラジル'66 - マシュ・ケ・ナダ
TTITLE6=トム・ジョーンズ - よくあることサ
TTITLE7=シャカタク - ナイト・バーズ
TTITLE8=ママス＆パパス - 夢のカリフォルニア
TTITLE9=スタン・ゲッツ＆ジョアン・ジルベルト - イパネマの娘
TTITLE10=ザ・スタイル・カウンシル - マイ・エヴァ・チェンジング・ムース
TTITLE11=ラーズ - ゼア・シー・ゴーズ
TTITLE12=リサ・ローブ＆ナイン・ストーリーズ - ステイ
TTITLE13=ナイト・レンジャー - シスター・クリスチャン
TTITLE14=オーリアンズ - ダンス・ウィズ・ミー
TTITLE15=マイケル・ジャクソン - ベンのテーマ
TTITLE16=ネヴィル・ブラザース - ア・チェンジ・イズ・ゴナ・カム
TTITLE17=マーヴィン・ゲイ - ホワッツ・ゴーイン・オン
TTITLE18=ジェヴェッタ・スティール - コーリング・ユー
TTITLE19=ルイ・アームストロング - この素晴しき世界
EXTD=
EXTT0=
EXTT1=
EXTT2=
EXTT3=
EXTT4=
EXTT5=
EXTT6=
EXTT7=
EXTT8=
EXTT9=
EXTT10=
EXTT11=
EXTT12=
EXTT13=
EXTT14=
EXTT15=
EXTT16=
EXTT17=
EXTT18=
EXTT19=
PLAYORDER=
